<?xml version="1.0" encoding="UTF-8"?>
<svg id="Layer_1" xmlns="http://www.w3.org/2000/svg" version="1.1" viewBox="0 0 497.17 287.23">
  <!-- Generator: Adobe Illustrator 29.5.1, SVG Export Plug-In . SVG Version: 2.1.0 Build 141)  -->
  <defs>
    <style>
      .st0 {
        fill: #d0232a;
      }

      .st1 {
        fill: #f8a71a;
      }

      .st2 {
        fill: #00acbe;
      }

      .st3 {
        fill: #0a2040;
      }

      .st4 {
        fill: #09203f;
      }

      .st5 {
        fill: #fff;
      }

      .st6 {
        fill: #102346;
      }

      .st7 {
        fill: #ec4d98;
      }

      .st8 {
        fill: #008c4d;
      }

      .st9 {
        fill: #f59120;
      }

      .st10 {
        fill: #a16327;
      }

      .st11 {
        fill: #087780;
      }

      .st12 {
        fill: #9bca3b;
      }
    </style>
  </defs>
  <g>
    <rect class="st5" x="8.57" y="42.91" width="201.25" height="201.25"/>
    <rect class="st3" x="10.31" y="44.49" width="197.77" height="198.08"/>
    <g>
      <path class="st5" d="M37.18,184.77c-.66.66-1.69,1.18-3.24,1.18-1.26,0-2.47-.39-3.29-1.21-1.07-1.07-1.03-2.42-1.03-3.6v-7.31h1.6v7.48c0,.91-.04,1.8.68,2.51.48.48,1.23.75,2.1.75s1.53-.3,1.96-.73c.8-.8.73-1.71.73-3.72v-6.29h1.57v6.04c0,2.21.07,3.76-1.07,4.9Z"/>
      <path class="st5" d="M49.68,185.71l-5.6-9.46.04,9.46h-1.46v-11.88h1.58l5.6,9.5-.04-9.5h1.46v11.88h-1.58Z"/>
      <path class="st5" d="M56.05,185.71v-11.88h1.6v11.88h-1.6Z"/>
      <path class="st5" d="M66.55,185.71h-1.76l-4.09-11.88h1.65l3.36,10.25,3.45-10.25h1.55l-4.16,11.88Z"/>
      <path class="st5" d="M73.82,185.71v-11.88h6.57v1.32h-5v3.74h4.7v1.28h-4.7v4.19h5.14v1.35h-6.71Z"/>
      <path class="st5" d="M90.68,185.71l-1.37-3.1c-.82-1.84-1.21-2-2.81-2h-.75v5.1h-1.57v-11.88h2.63c1.58,0,2.81-.02,3.77.94.59.59.92,1.37.92,2.37,0,.82-.23,1.51-.73,2.05-.43.46-1.12.86-1.9.94.39.02.78.25,1.01.48.36.36.61.93.93,1.66l1.53,3.44h-1.67ZM89.41,175.71c-.64-.64-1.48-.62-2.44-.62h-1.23v4.26h.55c1.14,0,2.3.04,3.04-.71.37-.37.59-.93.59-1.5,0-.64-.25-1.16-.52-1.42Z"/>
      <path class="st5" d="M98.46,185.96c-2.1,0-3.5-1.14-3.65-1.28l.76-1.1c.21.14,1.37,1.02,2.81,1.02s2.31-.87,2.31-1.96c0-1.3-1.45-1.94-2.73-2.57-1.51-.73-2.82-1.51-2.82-3.26,0-1.89,1.53-3.21,3.72-3.21s3.27,1.09,3.38,1.21l-.8,1.03c-.14-.12-1.09-.89-2.47-.89-1.3,0-2.22.64-2.22,1.71,0,1.12,1.05,1.54,2.22,2.14,1.05.53,3.38,1.35,3.38,3.68,0,1.96-1.44,3.47-3.9,3.47Z"/>
      <path class="st5" d="M106.11,185.71v-11.88h1.6v11.88h-1.6Z"/>
      <path class="st5" d="M115.89,175.14v10.57h-1.6v-10.57h-3.49v-1.32h8.56v1.32h-3.47Z"/>
      <path class="st5" d="M126.27,181.01v4.7h-1.58v-4.7l-3.75-7.18h1.75l2.89,5.59,2.84-5.59h1.61l-3.75,7.18Z"/>
      <path class="st5" d="M143.3,185.94c-3.13,0-5.39-2.55-5.39-6.15s2.24-6.2,5.48-6.2,5.37,2.53,5.37,6.11-2.22,6.24-5.46,6.24ZM143.28,174.95c-2.26,0-3.74,1.91-3.74,4.81s1.65,4.81,3.83,4.81c2.47,0,3.75-2.12,3.75-4.92s-1.58-4.7-3.84-4.7Z"/>
      <path class="st5" d="M154.14,175.14v3.74h4.55v1.28h-4.55v5.54h-1.58v-11.88h6.42v1.32h-4.84Z"/>
      <g>
        <path class="st5" d="M53.66,209.07c0,7.61-5.85,13.12-13.17,13.12s-13.17-5.58-13.17-12.84,5.86-13.12,13.17-13.12,13.17,5.58,13.17,12.84h0ZM49.42,209.21c0-6.91-3.28-11.58-8.93-11.58-6.13,0-8.92,5.65-8.92,11.58,0,6.91,3.28,11.61,8.92,11.61,6.14,0,8.93-5.66,8.93-11.61h0Z"/>
        <path class="st5" d="M134.1,209.07c0,7.61-5.85,13.12-13.17,13.12s-13.17-5.58-13.17-12.84,5.86-13.12,13.17-13.12,13.17,5.58,13.17,12.84h0ZM129.86,209.21c0-6.91-3.28-11.58-8.93-11.58-6.14,0-8.92,5.65-8.92,11.58,0,6.91,3.28,11.61,8.92,11.61,6.13,0,8.93-5.66,8.93-11.61h0Z"/>
        <path class="st5" d="M144.28,209.28h3.14c4.74,0,5.72-2.92,5.72-5.79,0-2.15-.91-3.9-3.14-4.88-1.19-.49-2.3-.56-3.84-.56h-1.88v11.23h0ZM150,213.42c-1.46-2.1-2.02-2.74-3.84-2.74h-1.88v8.39c0,.7.21,1.05,1.05,1.19l2.86.56v.99h-11.29v-.99l2.58-.56c.84-.21,1.04-.49,1.04-1.19v-19.68c0-.7-.27-1.05-1.04-1.19l-2.58-.56v-.98h11.01c2.3,0,3.9.21,5.23.7,2.72,1.05,4.25,3.64,4.25,6.07,0,3.08-2.3,5.65-6.13,6.56v.14c.77.35,1.19.84,3.91,4.41l3.49,4.54c.49.7,1.05,1.19,1.95,1.33l2.37.42v.99h-6.06c-.7,0-1.05-.21-1.68-1.06l-5.23-7.33h0Z"/>
        <path class="st5" d="M100.86,205.31h1.18v8.32h-1.18l-.49-2.39c-.2-.91-.76-1.26-1.6-1.26h-6.06v9.09c0,.7.21,1.05,1.04,1.19l2.86.56v.99h-11.3v-.99l2.58-.56c.84-.21,1.05-.49,1.05-1.19v-19.68c0-.7-.28-1.05-1.05-1.19l-2.58-.56v-.98h19.03v6.28h-1.18l-.98-3.55c-.28-.99-.84-1.33-1.67-1.33h-7.8v10.52h6.06c.84,0,1.4-.33,1.6-1.23l.49-2.03h0Z"/>
        <path class="st5" d="M164.98,221.8v-.99l2.58-.56c.84-.21,1.05-.49,1.05-1.19v-19.68c0-.7-.28-1.05-1.05-1.19l-2.58-.56v-.98h11.78c3.2,0,5.51.41,7.38,1.26,4.74,2.17,6.9,6.84,6.9,11.44s-1.67,8.66-5.92,10.91c-1.95,1.05-4.67,1.54-8.22,1.54h-11.92ZM172.31,198.05v21.22c0,.91.21,1.13,1.11,1.13h3.07c2.93,0,5.09-.36,6.62-1.47,2.58-1.89,3.7-5.16,3.7-9.51s-1.11-8.29-4.6-10.32c-1.47-.84-3.35-1.05-6.28-1.05h-3.62Z"/>
        <path class="st5" d="M63.57,220.82v.99h-9v-.99l2.23-.49c.84-.21,1.47-.49,1.96-1.13l7.53-9.64-7.53-10.18c-.49-.7-1.12-1.05-1.89-1.26l-2.09-.49v-.98h11.09v.98l-2.37.42c-.76.14-.69.35-.27.91l5.57,7.9h.14l5.78-7.76c.42-.56.42-.84-.21-.98l-2.23-.49v-.98h8.99v.98l-2.23.49c-.84.21-1.47.49-1.96,1.12l-7.17,9.01,8.01,10.82c.49.7,1.12,1.05,1.89,1.26l2.08.49v.99h-11.09v-.99l2.38-.42c.76-.14.69-.36.28-.92l-6.07-8.52h-.14l-6.2,8.52c-.42.56-.49.7.28.84l2.23.49h0Z"/>
      </g>
    </g>
    <path class="st5" d="M140.08,93.28c0,.64-.31.99-.63.99-.17,0-.26-.06-.26-.38v-1.4c0-.09,0-.17.02-.18.03-.01.08-.03.16-.03.31,0,.7.22.7,1Z"/>
    <path class="st5" d="M142.25,92.24c-.28,0-.51.32-.51.96s.24,1.14.6,1.14c.31,0,.48-.3.48-.96,0-.73-.26-1.14-.57-1.14ZM142.25,92.24c-.28,0-.51.32-.51.96s.24,1.14.6,1.14c.31,0,.48-.3.48-.96,0-.73-.26-1.14-.57-1.14ZM142.25,92.24c-.28,0-.51.32-.51.96s.24,1.14.6,1.14c.31,0,.48-.3.48-.96,0-.73-.26-1.14-.57-1.14ZM142.25,92.24c-.28,0-.51.32-.51.96s.24,1.14.6,1.14c.31,0,.48-.3.48-.96,0-.73-.26-1.14-.57-1.14ZM142.25,92.24c-.28,0-.51.32-.51.96s.24,1.14.6,1.14c.31,0,.48-.3.48-.96,0-.73-.26-1.14-.57-1.14ZM142.25,92.24c-.28,0-.51.32-.51.96s.24,1.14.6,1.14c.31,0,.48-.3.48-.96,0-.73-.26-1.14-.57-1.14ZM142.25,92.24c-.28,0-.51.32-.51.96s.24,1.14.6,1.14c.31,0,.48-.3.48-.96,0-.73-.26-1.14-.57-1.14ZM142.25,92.24c-.28,0-.51.32-.51.96s.24,1.14.6,1.14c.31,0,.48-.3.48-.96,0-.73-.26-1.14-.57-1.14ZM142.25,92.24c-.28,0-.51.32-.51.96s.24,1.14.6,1.14c.31,0,.48-.3.48-.96,0-.73-.26-1.14-.57-1.14ZM142.25,92.24c-.28,0-.51.32-.51.96s.24,1.14.6,1.14c.31,0,.48-.3.48-.96,0-.73-.26-1.14-.57-1.14ZM142.25,92.24c-.28,0-.51.32-.51.96s.24,1.14.6,1.14c.31,0,.48-.3.48-.96,0-.73-.26-1.14-.57-1.14ZM142.25,92.24c-.28,0-.51.32-.51.96s.24,1.14.6,1.14c.31,0,.48-.3.48-.96,0-.73-.26-1.14-.57-1.14ZM142.25,92.24c-.28,0-.51.32-.51.96s.24,1.14.6,1.14c.31,0,.48-.3.48-.96,0-.73-.26-1.14-.57-1.14ZM142.25,92.24c-.28,0-.51.32-.51.96s.24,1.14.6,1.14c.31,0,.48-.3.48-.96,0-.73-.26-1.14-.57-1.14ZM142.25,92.24c-.28,0-.51.32-.51.96s.24,1.14.6,1.14c.31,0,.48-.3.48-.96,0-.73-.26-1.14-.57-1.14ZM142.25,92.24c-.28,0-.51.32-.51.96s.24,1.14.6,1.14c.31,0,.48-.3.48-.96,0-.73-.26-1.14-.57-1.14ZM142.25,92.24c-.28,0-.51.32-.51.96s.24,1.14.6,1.14c.31,0,.48-.3.48-.96,0-.73-.26-1.14-.57-1.14ZM142.25,92.24c-.28,0-.51.32-.51.96s.24,1.14.6,1.14c.31,0,.48-.3.48-.96,0-.73-.26-1.14-.57-1.14ZM142.25,92.24c-.28,0-.51.32-.51.96s.24,1.14.6,1.14c.31,0,.48-.3.48-.96,0-.73-.26-1.14-.57-1.14ZM142.25,92.24c-.28,0-.51.32-.51.96s.24,1.14.6,1.14c.31,0,.48-.3.48-.96,0-.73-.26-1.14-.57-1.14ZM149.7,93.37c0-1.47-.5-2.65-1.56-3.28-.68-.4-1.58-.52-2.71-.52h-8.12v16.5h8.85c2.04,0,3.25.46,3.36,2.3h.2v-15ZM143.71,94.33c.17-.01.24-.05.27-.19.01-.11.03-.3.06-.64l.04-.73c.02-.45,0-.5-.29-.52v-.14h.86l.63,1.44.55-1.44h.89v.14c-.28.03-.29.04-.28.43l.03,1.22c0,.41.01.41.28.44v.14h-1.14v-.14c.27-.03.29-.03.28-.44v-1.28h-.03l-.7,1.82h-.2l-.66-1.7h0l-.03.81c-.01.31,0,.48,0,.59.01.14.09.17.33.19v.14h-.89v-.14ZM145.77,97.9l-.06-.03c-.3-.14-.63-.33-.63-.71,0-.41.29-.75.87-.75.11,0,.23.01.33.04.08.02.14.03.19.05.01.15.04.32.08.57l-.16.02c-.08-.24-.21-.5-.5-.5-.19,0-.31.14-.31.31s.14.29.37.39l.08.04c.33.15.62.34.62.76,0,.45-.36.78-.92.78-.15,0-.3-.03-.4-.06-.1-.03-.18-.06-.23-.09-.03-.16-.07-.36-.12-.6l.16-.05c.08.21.29.61.65.61.19,0,.33-.13.33-.36,0-.21-.15-.34-.36-.43ZM143.38,96.8c.06.2.36.92.49,1.28.11-.31.34-1.01.4-1.17.08-.22.05-.27-.11-.28h-.11v-.15h.88v.14c-.2.03-.26.04-.4.38-.02.05-.46,1.13-.74,1.87h-.28c-.25-.66-.59-1.56-.72-1.9-.12-.31-.2-.33-.37-.35v-.14h1.17v.14h-.12c-.14.03-.14.06-.1.19ZM142.32,92.05c.67,0,1.18.49,1.18,1.21,0,.78-.53,1.26-1.23,1.26-.73,0-1.21-.53-1.21-1.2,0-.59.39-1.27,1.26-1.27ZM138.29,94.47v-.14c.27-.02.29-.05.29-.44v-1.2c0-.39-.03-.42-.27-.44v-.14h1.06c.45,0,.82.09,1.06.32.17.17.31.43.31.75,0,.91-.69,1.29-1.53,1.29h-.93ZM140.71,100.98c-.25.02-.28.04-.28.44v1.19c0,.39.03.42.28.44v.15h-1.18v-.15c.25-.02.28-.05.28-.44v-1.19c0-.4-.03-.42-.28-.44v-.15h1.18v.15ZM140.76,98.83h-.9v-.14c.16,0,.25-.06.27-.19.01-.11.03-.31.03-.69v-.67c0-.27,0-.31-.08-.42-.05-.08-.14-.1-.27-.11v-.14h.8l1.21,1.51h0v-.49c0-.38-.01-.58-.03-.69-.01-.13-.12-.17-.36-.19v-.14h.93v.14c-.18,0-.28.06-.29.19-.01.11-.03.31-.03.69v1.37h-.31l-1.35-1.72h0v.67c0,.38.01.58.03.69.02.13.12.17.36.19v.14ZM142.74,103.2h-1.8v-.15c.28-.02.31-.05.31-.44v-1.19c0-.4-.03-.42-.27-.44v-.15h1.18v.15c-.27.02-.29.04-.29.44v1.24c0,.19,0,.28.08.31.06.03.14.03.25.03.12,0,.27,0,.35-.1.06-.06.12-.16.17-.36l.16.03c-.02.13-.1.52-.13.63ZM144.77,103.2h-1.81v-.15c.28-.02.31-.05.31-.44v-1.19c0-.4-.03-.42-.27-.44v-.15h1.18v.15c-.26.02-.29.04-.29.44v1.24c0,.19,0,.28.07.31.06.03.14.03.25.03.12,0,.28,0,.35-.1.06-.06.13-.16.18-.36l.15.03c-.02.13-.1.52-.13.63ZM147.04,100.98c-.2.02-.26.04-.4.37-.02.06-.46,1.13-.73,1.87h-.29c-.25-.65-.59-1.55-.72-1.89-.12-.31-.2-.33-.37-.35v-.15h1.17v.15h-.12c-.14.03-.14.06-.1.19.07.2.36.92.49,1.27.11-.31.34-1,.4-1.17.08-.22.05-.26-.11-.28h-.1v-.15h.87v.15ZM148.17,92.24c-.25.02-.28.05-.28.44v1.2c0,.39.03.42.28.44v.14h-1.18v-.14c.25-.02.28-.05.28-.44v-1.2c0-.39-.03-.42-.28-.44v-.14h1.18v.14ZM142.34,94.33c.31,0,.48-.3.48-.96,0-.73-.26-1.14-.57-1.14-.28,0-.51.32-.51.96s.24,1.14.6,1.14ZM142.25,92.24c-.28,0-.51.32-.51.96s.24,1.14.6,1.14c.31,0,.48-.3.48-.96,0-.73-.26-1.14-.57-1.14ZM142.25,92.24c-.28,0-.51.32-.51.96s.24,1.14.6,1.14c.31,0,.48-.3.48-.96,0-.73-.26-1.14-.57-1.14ZM142.25,92.24c-.28,0-.51.32-.51.96s.24,1.14.6,1.14c.31,0,.48-.3.48-.96,0-.73-.26-1.14-.57-1.14ZM142.25,92.24c-.28,0-.51.32-.51.96s.24,1.14.6,1.14c.31,0,.48-.3.48-.96,0-.73-.26-1.14-.57-1.14ZM142.25,92.24c-.28,0-.51.32-.51.96s.24,1.14.6,1.14c.31,0,.48-.3.48-.96,0-.73-.26-1.14-.57-1.14ZM142.25,92.24c-.28,0-.51.32-.51.96s.24,1.14.6,1.14c.31,0,.48-.3.48-.96,0-.73-.26-1.14-.57-1.14ZM142.25,92.24c-.28,0-.51.32-.51.96s.24,1.14.6,1.14c.31,0,.48-.3.48-.96,0-.73-.26-1.14-.57-1.14ZM142.25,92.24c-.28,0-.51.32-.51.96s.24,1.14.6,1.14c.31,0,.48-.3.48-.96,0-.73-.26-1.14-.57-1.14ZM142.25,92.24c-.28,0-.51.32-.51.96s.24,1.14.6,1.14c.31,0,.48-.3.48-.96,0-.73-.26-1.14-.57-1.14ZM142.25,92.24c-.28,0-.51.32-.51.96s.24,1.14.6,1.14c.31,0,.48-.3.48-.96,0-.73-.26-1.14-.57-1.14ZM142.25,92.24c-.28,0-.51.32-.51.96s.24,1.14.6,1.14c.31,0,.48-.3.48-.96,0-.73-.26-1.14-.57-1.14ZM142.25,92.24c-.28,0-.51.32-.51.96s.24,1.14.6,1.14c.31,0,.48-.3.48-.96,0-.73-.26-1.14-.57-1.14ZM142.25,92.24c-.28,0-.51.32-.51.96s.24,1.14.6,1.14c.31,0,.48-.3.48-.96,0-.73-.26-1.14-.57-1.14ZM142.25,92.24c-.28,0-.51.32-.51.96s.24,1.14.6,1.14c.31,0,.48-.3.48-.96,0-.73-.26-1.14-.57-1.14ZM142.25,92.24c-.28,0-.51.32-.51.96s.24,1.14.6,1.14c.31,0,.48-.3.48-.96,0-.73-.26-1.14-.57-1.14ZM142.25,92.24c-.28,0-.51.32-.51.96s.24,1.14.6,1.14c.31,0,.48-.3.48-.96,0-.73-.26-1.14-.57-1.14ZM142.25,92.24c-.28,0-.51.32-.51.96s.24,1.14.6,1.14c.31,0,.48-.3.48-.96,0-.73-.26-1.14-.57-1.14ZM142.25,92.24c-.28,0-.51.32-.51.96s.24,1.14.6,1.14c.31,0,.48-.3.48-.96,0-.73-.26-1.14-.57-1.14Z"/>
    <path class="st5" d="M159.3,96.68c-.28,0-.51.32-.51.96s.24,1.14.6,1.14c.31,0,.48-.3.48-.96,0-.73-.26-1.14-.57-1.14ZM160.83,92.92h-.01l-.22.69h.47l-.23-.69ZM160.83,92.92h-.01l-.22.69h.47l-.23-.69ZM159.3,96.68c-.28,0-.51.32-.51.96s.24,1.14.6,1.14c.31,0,.48-.3.48-.96,0-.73-.26-1.14-.57-1.14ZM159.3,96.68c-.28,0-.51.32-.51.96s.24,1.14.6,1.14c.31,0,.48-.3.48-.96,0-.73-.26-1.14-.57-1.14ZM160.83,92.92h-.01l-.22.69h.47l-.23-.69ZM160.83,92.92h-.01l-.22.69h.47l-.23-.69ZM159.3,96.68c-.28,0-.51.32-.51.96s.24,1.14.6,1.14c.31,0,.48-.3.48-.96,0-.73-.26-1.14-.57-1.14ZM159.3,96.68c-.28,0-.51.32-.51.96s.24,1.14.6,1.14c.31,0,.48-.3.48-.96,0-.73-.26-1.14-.57-1.14ZM160.83,92.92h-.01l-.22.69h.47l-.23-.69ZM160.83,92.92h-.01l-.22.69h.47l-.23-.69ZM159.3,96.68c-.28,0-.51.32-.51.96s.24,1.14.6,1.14c.31,0,.48-.3.48-.96,0-.73-.26-1.14-.57-1.14ZM155.39,89.57c-1.12,0-2.04.13-2.71.52-1.07.63-1.57,1.81-1.57,3.28v15h.2c.1-1.84,1.31-2.3,3.36-2.3h8.9v-16.5h-8.18ZM157.3,92.18h.8l1.21,1.51h0v-.48c0-.38-.01-.59-.03-.7-.02-.13-.12-.17-.36-.18v-.15h.93v.15c-.18,0-.28.06-.29.18-.01.11-.03.31-.03.7v1.36h-.31l-1.35-1.71h0v.66c0,.38.01.59.03.7.02.13.12.17.36.18v.15h-.9v-.15c.16,0,.25-.06.27-.18.01-.11.03-.31.03-.7v-.66c0-.27,0-.32-.08-.42-.05-.08-.14-.1-.27-.11v-.15ZM160.55,97.7c0,.78-.53,1.26-1.23,1.26-.73,0-1.21-.53-1.21-1.2,0-.59.39-1.27,1.26-1.27.66,0,1.17.49,1.17,1.21ZM157.81,98.77v.14h-1.18v-.14c.25-.02.28-.05.28-.44v-1.2c0-.39-.03-.42-.28-.44v-.14h1.18v.14c-.25.02-.28.05-.28.44v1.2c0,.39.03.42.28.44ZM155.94,94.4c.25-.02.28-.04.28-.44v-1.19c0-.4-.03-.42-.28-.44v-.15h1.17v.15c-.25.02-.28.04-.28.44v1.19c0,.4.03.42.28.44v.15h-1.17v-.15ZM155.96,98.77v.14h-1.27v-.14c.29-.02.31-.05.31-.44v-1.59h-.06c-.24,0-.34.04-.4.11-.04.05-.08.15-.13.35h-.15c.01-.31.03-.55.04-.74h.12c.05.08.09.09.19.09h1.44c.1,0,.11-.02.17-.09h.11c0,.15.02.46.04.73h-.16c-.06-.21-.1-.31-.15-.36-.06-.07-.18-.09-.36-.09h-.08v1.59c0,.39.03.42.33.44ZM153.56,94.55h-.9v-.15c.17-.01.24-.05.27-.18.02-.11.04-.31.06-.64l.04-.73c.03-.46,0-.5-.29-.52v-.15h.85l.63,1.44.56-1.44h.88v.15c-.27.02-.29.03-.28.42l.03,1.22c.01.41.02.42.28.44v.15h-1.14v-.15c.27-.02.29-.03.28-.44v-1.28h-.02l-.7,1.82h-.2l-.66-1.7h0l-.03.81c0,.31,0,.49,0,.6.01.13.1.17.33.18v.15ZM156.74,103.28h-1.14v-.14c.27-.03.28-.04.28-.44v-1.29h-.03l-.7,1.82h-.2l-.67-1.69h0l-.02.8c-.01.31,0,.49,0,.6.01.13.09.17.33.19v.14h-.89v-.14c.17-.01.24-.06.27-.19.01-.11.03-.31.06-.64l.04-.73c.02-.46,0-.5-.29-.52v-.14h.85l.63,1.44.56-1.44h.89v.14c-.28.03-.29.04-.29.42l.04,1.22c0,.4.01.41.28.44v.14ZM158.8,103.28h-1.85v-.14c.28-.02.31-.05.31-.44v-1.2c0-.39-.03-.42-.27-.44v-.14h1.72c0,.06.02.32.04.6h-.16c-.04-.17-.08-.27-.14-.33-.06-.06-.17-.08-.37-.08h-.06c-.14,0-.15,0-.15.13v.7h.18c.31,0,.32-.02.36-.29h.16v.85h-.16c-.03-.31-.04-.34-.36-.34h-.18v.59c0,.2,0,.28.07.31.06.03.14.03.25.03.15,0,.31-.02.39-.11.06-.06.12-.2.17-.37l.16.02c-.01.18-.09.55-.13.65ZM161.34,103.28h-1.14v-.14h.11c.13-.03.14-.07.09-.2l-.13-.37h-.59l-.11.35c-.05.15-.05.19.12.21h.11v.15h-.85v-.14c.19-.03.24-.04.36-.35l.73-1.88.25-.05.24.68c.16.43.31.87.45,1.24.11.31.18.34.36.36v.14ZM162.2,94.55h-1.14v-.15h.11c.13-.03.14-.07.09-.2l-.13-.37h-.59l-.11.35c-.04.15-.04.19.13.21h.1v.15h-.85v-.15c.19-.02.24-.03.36-.34l.73-1.88.25-.05.24.68c.16.43.31.86.45,1.23.12.32.18.34.36.36v.15ZM160.82,92.92l-.22.69h.47l-.23-.69h-.01ZM159.97,101.65l-.22.7h.46l-.22-.7h-.01ZM158.79,97.64c0,.66.24,1.14.6,1.14.31,0,.48-.3.48-.96,0-.73-.26-1.14-.57-1.14-.28,0-.51.32-.51.96ZM159.3,96.68c-.28,0-.51.32-.51.96s.24,1.14.6,1.14c.31,0,.48-.3.48-.96,0-.73-.26-1.14-.57-1.14ZM160.83,92.92h-.01l-.22.69h.47l-.23-.69ZM160.83,92.92h-.01l-.22.69h.47l-.23-.69ZM159.3,96.68c-.28,0-.51.32-.51.96s.24,1.14.6,1.14c.31,0,.48-.3.48-.96,0-.73-.26-1.14-.57-1.14ZM159.3,96.68c-.28,0-.51.32-.51.96s.24,1.14.6,1.14c.31,0,.48-.3.48-.96,0-.73-.26-1.14-.57-1.14ZM160.83,92.92h-.01l-.22.69h.47l-.23-.69ZM160.83,92.92h-.01l-.22.69h.47l-.23-.69ZM159.3,96.68c-.28,0-.51.32-.51.96s.24,1.14.6,1.14c.31,0,.48-.3.48-.96,0-.73-.26-1.14-.57-1.14ZM160.83,92.92h-.01l-.22.69h.47l-.23-.69ZM160.83,92.92h-.01l-.22.69h.47l-.23-.69Z"/>
    <path class="st5" d="M165.38,90.62v17.68h-12.85l-.18.44c-.21.52-.59,1-1.92,1s-1.71-.48-1.92-1l-.18-.44h-12.81v-17.68h-1.4v.46l-.98-.3c-.14-.44-.55-.75-1.03-.75-.6,0-1.09.49-1.09,1.09s.49,1.09,1.09,1.09c.25,0,.48-.09.66-.23l1.35.41v1.35l-.97-.17c-.17-.35-.51-.61-.93-.63-.6-.03-1.11.44-1.14,1.04-.03.6.44,1.11,1.04,1.14.32.02.61-.11.81-.31l1.19.21v1.38l-1.02-.05c-.19-.3-.53-.5-.92-.5-.6,0-1.09.49-1.09,1.09s.49,1.09,1.09,1.09c.35,0,.66-.17.86-.42l1.07.05v1.5l-1.05.04c-.2-.26-.51-.43-.86-.43-.6,0-1.09.49-1.09,1.09s.49,1.09,1.09,1.09c.38,0,.72-.2.91-.5l1-.04v1.38l-1.16.2c-.2-.2-.47-.32-.77-.32-.6,0-1.09.49-1.09,1.09s.49,1.09,1.09,1.09c.43,0,.81-.26.98-.62l.95-.16v1.35l-1.29.39c-.18-.14-.41-.23-.66-.23-.6,0-1.09.49-1.09,1.09s.49,1.09,1.09,1.09c.48,0,.89-.32,1.03-.75l.92-.28v1.3l-1.44.62c-.18-.11-.39-.17-.61-.16-.6.02-1.07.53-1.05,1.13.02.6.53,1.07,1.13,1.05.51-.02.92-.39,1.02-.87l.95-.41v1.28h13.35c.57.94,1.52,1.43,2.96,1.43s2.39-.49,2.96-1.43h13.39v-19.08h-1.4Z"/>
    <g>
      <path class="st5" d="M141.67,84.88c-2.69,0-4.87.42-4.87.93s2.18.93,4.87.93,4.87-.42,4.87-.93-2.18-.93-4.87-.93Z"/>
      <path class="st5" d="M148.37,78.84l-2.81,1.98-.02.2.67.3c.13.07.13.17.07.24l-1.77,1.49h-.17s-1.25-1.86-1.25-1.86c-.09-.12-.06-.24.1-.26l.84-.14v-.21l-2.18-3.08h-.36l-2.17,3.08v.21l.84.14c.15.03.18.14.1.26l-1.25,1.85h-.17s-1.65-1.48-1.65-1.48c-.07-.06-.07-.17.07-.24l.67-.3-.02-.2-2.93-1.98-.24.09,1.72,5.26c.87-.39,2.88-.67,5.22-.68,2.35.01,4.35.29,5.22.68l1.72-5.26-.24-.09Z"/>
    </g>
    <g>
      <path class="st5" d="M150.4,120.14c-2.69,0-4.87.42-4.87.93s2.18.93,4.87.93,4.87-.42,4.87-.93-2.18-.93-4.87-.93Z"/>
      <path class="st5" d="M157.1,114.1l-2.81,1.98-.02.2.67.3c.13.07.13.17.07.24l-1.76,1.49-.17-.02-1.25-1.85c-.09-.12-.06-.24.1-.26l.84-.14v-.21l-2.17-3.08h-.36l-2.17,3.08v.21l.84.14c.15.03.18.14.1.26l-1.25,1.85-.17.02-1.65-1.49c-.07-.06-.07-.17.07-.24l.67-.3-.02-.2-2.93-1.98-.24.09,1.72,5.26c.87-.39,2.88-.67,5.22-.68,2.35.01,4.35.29,5.22.68l1.72-5.26-.24-.09Z"/>
    </g>
    <g>
      <path class="st5" d="M159.11,84.88c-2.69,0-4.87.42-4.87.93s2.18.93,4.87.93,4.87-.42,4.87-.93-2.18-.93-4.87-.93Z"/>
      <path class="st5" d="M165.81,78.84l-2.81,1.98-.02.2.67.3c.13.07.13.17.07.24l-1.76,1.49h-.17s-1.25-1.86-1.25-1.86c-.09-.12-.06-.24.1-.26l.84-.14v-.21l-2.18-3.08h-.36l-2.17,3.08v.21l.84.14c.15.03.18.14.1.26l-1.25,1.85h-.17s-1.65-1.5-1.65-1.5c-.07-.06-.07-.17.07-.24l.67-.28-.03-.2-2.93-1.98-.24.09,1.72,5.26c.87-.39,2.87-.67,5.22-.68,2.35.01,4.35.29,5.22.68l1.72-5.26-.24-.09Z"/>
    </g>
    <path class="st5" d="M151.36,64.69c0,.55-.45,1-1,1s-1-.45-1-1,.45-1,1-1,1,.45,1,1Z"/>
    <path class="st5" d="M174.67,74.01c-.03.55-.5.98-1.05.95-.55-.03-.97-.5-.95-1.05.03-.55.5-.97,1.05-.95.55.03.97.5.95,1.05Z"/>
    <path class="st5" d="M147.09,133.22c0,.55-.45,1-1,1s-1-.45-1-1,.45-1,1-1,1,.45,1,1Z"/>
    <path class="st5" d="M156.92,134.84c0,.55-.45,1-1,1s-1-.45-1-1,.45-1,1-1,1,.45,1,1Z"/>
    <path class="st5" d="M119.23,80.29h0Z"/>
    <path class="st5" d="M158.08,69.33h0Z"/>
    <path class="st5" d="M159.95,62.75h0Z"/>
    <path class="st5" d="M175.59,82.03h0Z"/>
    <path class="st5" d="M186.55,103.73h0Z"/>
    <path class="st5" d="M183.13,113.6h0Z"/>
    <path class="st5" d="M123.68,114.39c.34,0,1.31.1,2.13,1.26.34.48.58,1.04.57,1.64,0,.98-.48,1.54-1.62,2.35l-3.04,2.15-.83-1.18,3.41-2.41c.31-.22.74-.59.74-1.06,0-.26-.03-.47-.27-.8-.36-.51-.74-.56-.98-.56-.36,0-.7.22-1.44.73l-2.95,1.93-.8-1.15,3.13-2.05c.83-.58,1.36-.86,1.96-.86Z"/>
    <path class="st5" d="M118.26,111.61l4.16-1.64.45,1.17-6.29,2.44-.44-1.22,3.25-4.15-4.19,1.47-.45-1.23,6.34-2.22.42,1.15-3.26,4.22Z"/>
    <path class="st5" d="M113.74,103.23l6.68-1.02.22,1.42-6.68,1.02-.22-1.42Z"/>
    <path class="st5" d="M120.18,97.77l-6.85,2.06.06-1.45,5.14-1.39-5-1.85.06-1.41,6.65,2.64-.06,1.4Z"/>
    <path class="st5" d="M114.31,90.08l1.12-3.94,1.11.32-.73,2.58,1.51.43.69-2.42,1.09.31-.69,2.42,1.66.47.75-2.65,1.13.32-1.14,4.02-6.5-1.85Z"/>
    <path class="st5" d="M124.62,82.49l-2-.18c-.95-.09-1.04.14-1.31.62l-.08.14,2.37,1.26-.71,1.25-5.94-3.26.97-1.71c.44-.79.91-1.63,2.1-1.63.75,0,1.78.63,1.78,1.76,0,.2-.05.41-.13.63.27-.39.75-.44,1.19-.44.24,0,.48.04.68.06l1.8.16-.74,1.33ZM119.63,80.44c-.34.1-.52.36-.78.82l-.22.38,1.64.88.28-.5c.23-.42.28-.66.2-.94-.06-.22-.27-.45-.47-.57-.24-.13-.48-.13-.64-.09Z"/>
    <path class="st5" d="M127.61,69.17l1.15-.87,4.06,5.4-1.15.87-4.06-5.4Z"/>
    <path class="st5" d="M135.19,65.81l2.57,4.98-1.28.66-2.57-4.99-1.65.85-.53-1.03,4.56-2.36.53,1.03-1.64.85Z"/>
    <path class="st5" d="M143.1,66.18l.65,2.62-1.34.33-.65-2.62-3.04-3.43,1.42-.35,2.01,2.36.68-3.04,1.36-.33-1.08,4.46Z"/>
    <path class="st5" d="M167.54,68.61l2.13,1.27-.58.98-2.13-1.27-1.48,2.49-1.22-.73,3.46-5.81,3.46,2.07-.59.99-2.24-1.34-.8,1.35Z"/>
    <path class="st5" d="M179.68,90.58l1.85-2.03-2.68-.64-.44-1.41,3.99,1.04,2.5-2.93.46,1.48-1.72,1.88,2.49.6.43,1.38-3.71-.99-2.71,3.09-.46-1.47h0Z"/>
    <path class="st5" d="M186.14,95.41l-1.57.13.17,2.5-1.13.08-.17-2.48-2.89.2-.1-1.36,6.74-.55.27,4.07-1.15.08-.17-2.65h0Z"/>
    <path class="st5" d="M190.89,98.72c.18-22.32-17.83-40.62-40.15-40.8-10.43-.08-20.37,3.79-27.98,10.91-8.18,7.65-12.74,18.04-12.83,29.23-.11,13.35,6.36,25.85,17.3,33.51,1.04,4.34,4.95,7.57,9.61,7.57,1.33,0,2.63-.26,3.84-.77,1.3.41,2.63.76,3.96,1.04-.43,1.19-1.04,2.31-1.64,3.32l.97.97c.23-.15.5-.23.78-.23.74,0,1.45.51,1.45,1.42,0,.74-.5,1.44-1.54,1.44-.57,0-1.3-.3-1.69-1.15,0,0-.26.82-.26,1.82,0,3.01,3.26,6.32,7.64,7.71,4.39-1.38,7.65-4.7,7.65-7.71,0-.99-.26-1.82-.26-1.82-.4.85-1.13,1.15-1.69,1.15-1.04,0-1.54-.7-1.54-1.44,0-.92.7-1.42,1.45-1.42.27,0,.55.08.78.23l.89-.89h.02s.04-.06.04-.06c0,0,0,0,.01,0v-.02s0,0,0,0h0c-.44-1.06-.76-2.01-.98-2.93,7.25-1,13.37-4.08,18.24-9.2h0c10.05-7.66,15.87-19.24,15.97-31.88ZM136.85,137.79c-4.66,0-8.46-3.81-8.46-8.5,0-1.47.37-2.84,1.02-4.05.43.39.89.8,1.37,1.21-.41.87-.65,1.84-.65,2.86,0,2.54,1.28,4.65,3.7,6.08,1.41.83,3,1.58,4.69,2.23-.55.11-1.11.17-1.68.17ZM150.41,125.38c-1.58,0-3.14-.14-4.67-.41-1.65-3.37-5.13-5.54-8.89-5.54-.96,0-1.89.14-2.78.4-6.63-5.09-10.59-13.05-10.59-21.43,0-14.88,12.08-26.98,26.93-26.98s26.92,12.1,26.92,26.98-12.08,26.98-26.92,26.98ZM156.16,126.15c-.7,1.13-1.13,2.59-1.27,4.07-2.47-.65-4.71-1.5-6.67-2.39.27-.57.91-1.1,2-1.1.07,0,.13,0,.2,0,1.97,0,3.89-.2,5.75-.59ZM147.55,126.6c-.22.2-.41.42-.56.66-.87-.37-2.53-1.15-3.07-1.47.86.28,2.77.73,3.63.82ZM136.85,120.79c2.83,0,5.49,1.46,7.04,3.79-1.37-.34-2.71-.79-4.02-1.35h0s-.04-.01-.04-.01c-.91-.43-1.89-.65-2.91-.65-2.26,0-4.25,1.11-5.49,2.8-.52-.29-1.03-.59-1.54-.9,1.53-2.22,4.07-3.67,6.95-3.67ZM155.81,142.22c-1.55,0-2.7,1.21-2.7,2.71,0,1.75,1.22,2.8,2.79,2.8.2,0,.39-.02.57-.06-.47,2.18-3.04,4.53-6.13,5.59-3.04-1.06-5.65-3.41-6.12-5.59.18.04.37.06.57.06,1.57,0,2.79-1.05,2.79-2.8,0-1.5-1.15-2.71-2.7-2.71.39-.72.83-1.61,1.16-2.54,1.83.31,3.63.49,5.3.49,1.35,0,2.67-.07,3.95-.2.17.66.59,1.93.7,2.26-.06,0-.11-.01-.18-.01ZM151.34,138.81c-5.39,0-12.12-1.84-16.74-4.57-1.38-.82-3.03-2.33-3.03-4.92,0-.67.13-1.31.35-1.91,1.75,1.44,3.54,2.78,4.67,3.4.27.15.42.22.73.22.74,0,1.34-.61,1.34-1.35,0-.57-.31-1.03-.82-1.26-.97-.42-2.98-1.26-5.16-2.38.98-1.28,2.51-2.11,4.23-2.11.79,0,1.56.17,2.27.51l1.47.86c4.68,2.86,16.64,10.18,31.13,6.38-5.47,4.79-12.19,7.13-20.45,7.13ZM173.99,129.57c-6.48,2.29-12.53,2.14-17.7,1,.16-2.22.99-4.68,2.35-5.05,11.64-3.53,20.13-14.35,20.13-27.12,0-15.63-12.72-28.34-28.36-28.34s-28.36,12.71-28.36,28.34c0,8.54,3.9,16.66,10.51,22.02-1.55.75-2.87,1.88-3.84,3.28-.46-.32-.91-.66-1.33-1l-.26.27c.29.35.71.79,1.23,1.3-.89,1.47-1.4,3.19-1.4,5.04,0,.13.01.25.02.38-9.9-7.45-15.71-19.13-15.61-31.59.09-10.83,4.49-20.88,12.4-28.27,7.34-6.87,16.92-10.6,26.96-10.52,21.53.17,38.91,17.86,38.73,39.43-.1,12.25-5.74,23.46-15.47,30.85Z"/>
    <path class="st5" d="M128.84,76.43c0,.58-.25,1.19-.76,1.74-.97,1.06-2.01,1.16-2.11,1.16l-.29-1.12c.16-.04.92-.2,1.46-.79.24-.27.37-.55.37-.8,0-.27-.18-.73-.72-.73-.59,0-1.57.85-2.58.85-.39,0-.82-.05-1.26-.47-.43-.4-.63-.9-.63-1.41,0-.56.26-1.15.73-1.67.9-.99,1.89-1.07,1.98-1.07l.24,1.1c-.11.02-.85.18-1.31.68-.24.26-.36.54-.36.78,0,.27.17.59.61.6.48,0,1.7-.88,2.69-.88.46,0,.79.08,1.25.51.46.43.7.96.7,1.52Z"/>
    <path class="st5" d="M159.95,69.63c-1.72,0-3.29-1.31-3.29-3.29,0-1.77,1.18-3.81,3.33-3.81,1.74,0,3.36,1.24,3.36,3.22,0,1.5-1.01,3.88-3.4,3.88ZM161.92,65.73c0-.47-.11-.96-.39-1.33-.29-.39-.77-.67-1.34-.67-1.21,0-2.1,1.5-2.1,2.75,0,1.15.78,1.94,1.82,1.94,1.37,0,2.01-1.78,2.01-2.68Z"/>
    <path class="st5" d="M178.69,84.08c-2.06,0-3.19-1.98-3.19-3.32,0-2.02,2.17-3.56,3.86-3.56,1.85,0,3.2,1.76,3.2,3.35,0,1.81-1.89,3.52-3.88,3.52ZM178.45,82.71c1.19,0,2.83-1.03,2.83-2.41,0-.95-.74-1.7-1.69-1.7-1.11,0-2.8.99-2.8,2.38,0,.74.57,1.72,1.66,1.72Z"/>
    <path class="st5" d="M180.02,104.01c0-1.67,1.13-3.31,3.38-3.31,1.89,0,3.71,1.17,3.71,3.26,0,1.72-1.1,3.37-3.33,3.37-1.91,0-3.76-1.21-3.76-3.32ZM183.85,105.88c1.2,0,2.08-.73,2.08-1.81,0-1.29-1.49-1.94-2.63-1.94-1.47,0-2.07.96-2.07,1.86,0,1.41,1.72,1.9,2.62,1.9Z"/>
    <path class="st5" d="M177.45,111.99h2.01c.95.02,1.03-.22,1.25-.72l.07-.15-2.42-1.12.58-1.28,6.11,2.83-.78,1.76c-.54,1.19-.99,1.78-2.12,1.78-.72,0-1.78-.6-1.77-1.7,0-.17.02-.35.08-.54-.36.63-1.27.54-1.83.54h-1.81s.63-1.39.63-1.39ZM181.37,112.74c0,.52.43.93.92.93.43,0,.7-.24.96-.8l.21-.5-1.67-.79-.28.62c-.09.21-.14.38-.14.54Z"/>
    <path class="st5" d="M173.34,119.47c0-1.38.64-2.14,1.45-3.14l.88-1.08,5.24,4.27-1.18,1.45c-.66.82-1.45,1.82-2.95,1.82-.86,0-1.61-.4-2.14-.83-.67-.54-1.3-1.46-1.3-2.49ZM176.94,121.45c.71,0,1.13-.21,1.95-1.22l.26-.31-3.48-2.84-.43.53c-.42.52-.64,1.02-.64,1.51,0,.65.32,1.22.98,1.76.47.39.91.57,1.36.57Z"/>
  </g>
  <path class="st10" d="M477.64,215.01l-5.57-21.05,5.57,21.05M455.36,220.92l22.28-5.9-22.28,5.9"/>
  <polyline class="st9" points="455 221.01 455.05 203.27 472.06 193.96 477.64 215.01 455.36 220.92 455 221.01"/>
  <polyline class="st12" points="236.99 92.94 231.42 71.89 254.06 65.89 254.01 83.64 236.99 92.94"/>
  <polyline class="st10" points="432.01 42.71 428.18 28.25 432.01 42.71"/>
  <polyline class="st9" points="432.08 42.99 414.35 42.93 405.04 25.91 426.09 20.34 428.18 28.25 432.01 42.71 432.08 42.99"/>
  <polyline class="st12" points="276.96 243.9 294.71 243.95 304.01 260.97 282.96 266.55 276.96 243.9"/>
  <polyline class="st2" points="254.9 171.28 217.83 103.46 236.99 92.94 253.95 156.7 253.95 169.55"/>
  <polyline class="st7" points="472.06 193.96 455.2 130.45 455.2 117.7 491.17 183.52 472.06 193.96"/>
  <polyline class="st7" points="341.57 42.72 328.92 42.7 394.6 6.81 405.04 25.91 341.57 42.72"/>
  <polyline class="st11" points="314.46 280.1 304.01 260.99 304.01 260.99 314.46 280.1"/>
  <polyline class="st2" points="314.46 280.1 304.01 260.99 304.01 260.99 304.01 260.99 368.37 243.95 380.61 243.95 314.46 280.1"/>
  <polyline class="st8" points="253.95 157.35 236.92 92.97 253.95 83.69 253.95 156.5"/>
  <polyline class="st0" points="341.57 42.72 405.04 25.91 414.35 42.93 341.57 42.72"/>
  <polyline class="st8" points="368.37 243.95 304.01 260.99 294.7 243.95 368.77 243.95"/>
  <polyline class="st0" points="454.95 129.33 472.06 193.96 455.05 203.27 455.18 130.47"/>
  <polyline class="st1" points="294.7 243.95 276.96 243.9 260.3 181.01 294.7 243.95"/>
  <polyline class="st1" points="392.1 237.66 455.05 203.27 455 221.01 392.1 237.66"/>
  <polyline class="st1" points="254.01 83.64 254.06 65.89 316.95 49.24 254.01 83.64"/>
  <polyline class="st1" points="448.74 105.88 414.35 42.93 432.08 42.99 448.74 105.88"/>
  <polyline class="st4" points="316.95 49.24 328.92 42.7 341.57 42.72 316.95 49.24"/>
  <polyline class="st4" points="448.74 105.88 455.2 117.7 455.2 130.45 448.74 105.88"/>
  <path class="st1" d="M367.64,244.53"/>
  <rect class="st6" x="254.62" y="43.07" width="199.92" height="200.26"/>
  <g>
    <path class="st5" d="M270.46,152.18c0-3.92,3.05-6.82,7.22-6.82s7.22,2.88,7.22,6.82-3.07,6.82-7.22,6.82-7.22-2.9-7.22-6.82M281.8,152.18c0-2.51-1.77-4.22-4.13-4.22s-4.13,1.72-4.13,4.22,1.77,4.22,4.13,4.22,4.13-1.71,4.13-4.22Z"/>
    <polyline class="st5" points="296.78 158.78 293.59 154.2 290.47 158.78 286.96 158.78 291.84 152.07 287.21 145.58 290.67 145.58 293.71 149.86 296.68 145.58 299.98 145.58 295.38 151.95 300.3 158.78 296.78 158.78"/>
    <polyline class="st5" points="306.31 148.03 306.31 151.52 312.41 151.52 312.41 153.97 306.31 153.97 306.31 158.78 303.26 158.78 303.26 145.58 313.22 145.58 313.22 148.03 306.31 148.03"/>
    <path class="st5" d="M316.08,152.18c0-3.92,3.05-6.82,7.22-6.82s7.22,2.88,7.22,6.82-3.07,6.82-7.22,6.82-7.22-2.9-7.22-6.82M327.43,152.18c0-2.51-1.77-4.22-4.13-4.22s-4.13,1.72-4.13,4.22,1.77,4.22,4.13,4.22,4.13-1.71,4.13-4.22Z"/>
    <path class="st5" d="M342.97,158.78l-2.54-3.67h-2.81v3.67h-3.05v-13.19h5.71c3.52,0,5.73,1.83,5.73,4.79,0,1.98-1,3.43-2.71,4.16l2.96,4.24h-3.28M340.1,148.07h-2.49v4.6h2.49c1.87,0,2.81-.87,2.81-2.3s-.94-2.3-2.81-2.3Z"/>
    <g>
      <polyline class="st5" points="273.5 170.07 275.08 170.07 275.08 190.32 287.56 190.32 287.56 191.74 273.5 191.74 273.5 170.07"/>
      <rect class="st5" x="292.61" y="170.07" width="1.58" height="21.67"/>
      <polyline class="st5" points="304.32 171.49 304.32 180.75 315.86 180.75 315.86 182.17 304.32 182.17 304.32 191.74 302.74 191.74 302.74 170.07 317.23 170.07 317.23 171.49 304.32 171.49"/>
      <polyline class="st5" points="338.22 190.32 338.22 191.74 323.27 191.74 323.27 170.07 337.76 170.07 337.76 171.49 324.85 171.49 324.85 180.04 336.4 180.04 336.4 181.43 324.85 181.43 324.85 190.32 338.22 190.32"/>
      <polyline class="st5" points="344.98 170.07 346.56 170.07 346.56 190.32 359.03 190.32 359.03 191.74 344.98 191.74 344.98 170.07"/>
      <path class="st5" d="M361.58,180.9c0-6.29,4.8-10.99,11.27-10.99s11.27,4.68,11.27,10.99-4.83,10.99-11.27,10.99-11.27-4.71-11.27-10.99M382.5,180.9c0-5.48-4.14-9.54-9.66-9.54s-9.69,4.06-9.69,9.54,4.15,9.54,9.69,9.54,9.66-4.06,9.66-9.54Z"/>
      <polyline class="st5" points="408.24 170.07 408.24 191.74 406.94 191.74 392.18 172.91 392.18 191.74 390.59 191.74 390.59 170.07 391.93 170.07 406.67 188.89 406.67 170.07 408.24 170.07"/>
      <g>
        <path class="st5" d="M350.16,145.58h5.99c4.32,0,7.27,2.6,7.27,6.6s-2.96,6.6-7.27,6.6h-5.99v-13.19M356,156.27c2.62,0,4.33-1.56,4.33-4.09s-1.71-4.09-4.33-4.09h-2.79v8.18h2.79Z"/>
        <path class="st5" d="M432.28,181h1.51v8.11c-1.94,1.86-4.77,2.79-7.74,2.79-6.53,0-11.33-4.68-11.33-10.99s4.81-10.99,11.37-10.99c3.12,0,5.88.99,7.8,2.97l-.99,1.05c-1.9-1.86-4.15-2.57-6.79-2.57-5.64,0-9.81,4.09-9.81,9.54s4.17,9.54,9.81,9.54c2.29,0,4.4-.56,6.17-1.98v-7.46"/>
        <polyline class="st5" points="272.16 204.19 276.9 204.19 276.9 220.84 287.19 220.84 287.19 224.71 272.16 224.71 272.16 204.19"/>
        <polyline class="st5" points="306.93 220.9 306.93 224.71 291.05 224.71 291.05 204.19 306.55 204.19 306.55 208 295.77 208 295.77 212.46 305.29 212.46 305.29 216.15 295.77 216.15 295.77 220.9 306.93 220.9"/>
        <path class="st5" d="M325.42,220.31h-9.52l-1.82,4.39h-4.86l9.14-20.51h4.69l9.17,20.51h-4.98l-1.82-4.39M323.92,216.71l-3.25-7.85-3.25,7.85h6.5Z"/>
        <path class="st5" d="M348.62,224.71l-3.96-5.71h-4.37v5.71h-4.75v-20.51h8.88c5.48,0,8.91,2.84,8.91,7.44,0,3.08-1.55,5.33-4.22,6.48l4.6,6.59h-5.1M344.16,208.06h-3.87v7.15h3.87c2.9,0,4.37-1.35,4.37-3.57s-1.46-3.57-4.37-3.57Z"/>
        <polyline class="st5" points="377.09 204.19 377.09 224.71 373.2 224.71 362.97 212.25 362.97 224.71 358.28 224.71 358.28 204.19 362.21 204.19 372.4 216.65 372.4 204.19 377.09 204.19"/>
        <rect class="st5" x="383.15" y="204.19" width="4.76" height="20.51"/>
        <polyline class="st5" points="412.77 204.19 412.77 224.71 408.87 224.71 398.65 212.25 398.65 224.71 393.96 224.71 393.96 204.19 397.89 204.19 408.09 216.65 408.09 204.19 412.77 204.19"/>
        <path class="st5" d="M432.69,214.13h4.33v8.32c-2.25,1.7-5.35,2.61-8.29,2.61-6.44,0-11.2-4.42-11.2-10.61s4.76-10.61,11.28-10.61c3.6,0,6.59,1.23,8.58,3.55l-3.05,2.81c-1.49-1.58-3.22-2.31-5.3-2.31-3.99,0-6.71,2.67-6.71,6.56s2.72,6.56,6.65,6.56c1.29,0,2.49-.23,3.69-.88v-6.01"/>
      </g>
    </g>
  </g>
  <path class="st5" d="M253.95,42.7v201.25h201.25V42.7h-201.25ZM453.46,242.36h-197.77V44.28h197.77v198.08Z"/>
  <polyline class="st2" points="253.95 169.55 217.83 103.32 236.99 92.94"/>
</svg>